<?xml version="1.0" standalone="no"?><!DOCTYPE svg PUBLIC "-//W3C//DTD SVG 1.1//EN" "http://www.w3.org/Graphics/SVG/1.1/DTD/svg11.dtd"><svg t="1591959849464" class="icon" viewBox="0 0 1379 1024" version="1.1" xmlns="http://www.w3.org/2000/svg" p-id="10962" xmlns:xlink="http://www.w3.org/1999/xlink" width="269.3359375" height="200"><defs><style type="text/css">@font-face { font-family: element-icons; src: url("chrome-extension://moombeodfomdpjnpocobemoiaemednkg/fonts/element-icons.woff") format("woff"), url("chrome-extension://moombeodfomdpjnpocobemoiaemednkg/fonts/element-icons.ttf ") format("truetype"); }
</style></defs><path d="M624.813559 873.957966h-71.68l1.648814 12.322712C598.779661 885.152542 643.644746 885.152542 689.898305 885.152542h10.934237l2.60339-11.281356zM1009.421017 245.76l-12.322712 208.271186-1.995932 33.149831-7.289492 123.313898-5.553898 93.895593-2.169491 36.621017-7.029153 117.84678h100.577627l8.677966 36.621017c40.439322 2.256271 78.101695 4.946441 111.338305 7.81017L1024 0.433898l-9.632542 161.757288z" fill="#A4A4AB" p-id="10963"></path><path d="M1206.237288 971.932203h-106.652203l-13.537627-59.183728c-36.187119-2.082712-74.977627-3.905085-115.850848-5.380339v2.082711l-4.946441 83.829153c212.957288-7.549831 370.028475-23.690847 406.562712-43.389831-21.434576-11.368136-84.176271-21.521356-175.034576-29.591864zM8.157288 950.237288c26.033898 13.797966 113.421017 26.033898 238.470509 34.711865l8.677966-69.423729c-129.822373 8.244068-220.593898 20.56678-247.148475 34.711864zM696.840678 902.508475l-15.880678 69.423728H566.497627l-9.372203-68.382372c-54.671186 0.867797-107.086102 2.256271-156.20339 4.165423l-2.69017 12.84339-14.839322 71.59322c92.333559 3.731525 196.382373 5.901017 306.505763 5.901017 52.067797 0 102.48678-0.520678 151.17017-1.388474l-19.265085-93.027797C781.016949 902.508475 739.536271 902.508475 696.840678 902.508475z" fill="#71717D" p-id="10964"></path><path d="M557.212203 903.549831l9.285424 68.382372h114.462373l15.880678-69.423728h-6.942373c-45.385763 0-89.730169 0-132.686102 1.041356zM1099.585085 971.932203H1206.237288l-9.632542-51.286779c-33.32339-2.950508-70.378305-5.640678-110.557288-7.896949z" fill="#71717D" p-id="10965"></path><path d="M1371.639322 950.237288l0.08678-0.08678-0.08678 0.08678zM8.157288 950.237288l-0.08678-0.08678 0.08678 0.08678zM404.48 890.185763l-3.644746 17.355932c49.290847-1.822373 101.618983-3.297627 156.20339-4.165424l-2.343051-17.355932c-52.414915 1.041356-102.660339 2.429831-150.215593 4.165424zM257.041356 897.648814C100.317288 907.975593 0 923.769492 0 941.559322a5.467119 5.467119 0 0 0 0.781017 2.60339l0.520678 0.781017a11.802034 11.802034 0 0 0 1.735593 1.909152l0.954576 0.781017a28.376949 28.376949 0 0 0 3.557967 2.343051c26.641356-14.145085 117.326102-26.467797 246.801355-34.711864zM971.237966 890.098983l-1.041356 17.355932c40.87322 1.475254 79.663729 3.297627 115.850848 5.380339l-3.991865-17.355932c-34.798644-2.256271-71.853559-3.991864-110.817627-5.380339zM700.832542 885.152542l-3.991864 17.355933c42.695593 0 84.43661 0 124.962712 1.041356l-3.557966-17.355933c-38.096271-1.041356-77.320678-1.041356-117.412882-1.041356zM1193.307119 903.029153l3.297627 17.355932c90.945085 8.070508 153.68678 18.223729 175.034576 29.591864a28.376949 28.376949 0 0 0 3.557966-2.343051l0.954576-0.781017a11.802034 11.802034 0 0 0 1.735594-1.909152l0.520678-0.781017a5.467119 5.467119 0 0 0 0.781017-2.60339c0.607458-14.926102-70.291525-28.463729-185.882034-38.530169z" fill="#D9D9D9" p-id="10966"></path><path d="M689.898305 885.152542c-46.253559 0-91.378983 0-135.029152 1.128136l2.34305 17.355932c43.389831-0.694237 87.300339-1.041356 132.686102-1.041356h6.942373l3.991864-17.355932zM1086.047458 912.748475c40.265763 2.343051 77.320678 4.946441 110.557288 7.896949l-3.297627-17.355932c-33.583729-2.950508-70.812203-5.553898-111.338305-7.81017z" fill="#D9D9D9" p-id="10967"></path><path d="M1024 0h-0.08678l0.08678 0.433898V0zM544.976271 813.906441l-82.614237 60.051525h90.771525l-8.157288-60.051525zM796.637288 873.957966H815.728814l2.51661 12.235932c41.480678 0.607458 81.659661 1.562034 120.103051 2.776949l34.711864-24.992542v-5.467119H817.811525zM478.76339 389.03322l-47.902373 52.762034h50.418983l7.289492-41.220339-2.343051-17.008813-7.463051 5.467118zM267.368136 1015.322034l110.991186 1.301695 5.12-24.818983c-27.248814-1.128136-53.543051-2.343051-78.622373-3.731526zM531.004746 711.59322L516.338983 604.07322 270.839322 782.405424l6.855593-56.233221-20.48 171.476611 19.265085-1.214916zM469.564746 508.094915l6.855593-38.877288H386.256271l2.60339-15.012881-86.258983 62.568135-15.44678 129.214916 189.960678-137.892882h-7.54983zM457.155254 170.261695L333.320678 260.165424l15.967458-133.29356 92.767457-67.427796L433.898305 0h-69.423729l-46.600678 389.380339 153.947119-111.772203-14.665763-107.346441zM909.884746 1023.392542l-63.435932-0.781017L963.254237 1024l1.822373-30.72-14.492203 0.520678zM764.268475 441.795254h50.418983l11.021017-62.481356-13.884746 9.979661-47.555254 52.501695z" fill="#D4D4D4" p-id="10968"></path><path d="M553.133559 873.957966h71.593221l363.086101-263.810169 7.289492-123.313899L544.976271 813.906441l8.157288 60.051525zM486.226441 383.566102l2.343051 17.008813 3.731525-21.434576-6.074576 4.425763zM848.444746 480.759322l15.793898-11.541695H850.440678l-1.995932 11.541695zM515.124068 480.585763l15.620339-11.368136h-13.624407l-1.995932 11.368136zM973.060339 858.511186l7.029153-117.846779-162.277967 117.846779h155.248814zM855.300339 441.795254h22.99661l-3.471186 19.785763 127.305762-92.507119-5.03322 84.61017 12.322712-207.924068-137.111864 99.623051-17.008814 96.412203zM652.930169 341.044068q-31.327458-0.867797-44.517966 71.853559l65.518644-47.468474c-1.822373-16.922034-8.851525-25.079322-21.000678-24.385085zM802.972203 508.094915l6.855594-38.877288h-90.250848l2.60339-14.752542-32.195254 23.343729a74.890847 74.890847 0 0 1-42.348475 30.72l-131.471186 95.457627L531.004746 711.59322l279.690847-203.498305z" fill="#D4D4D4" p-id="10969"></path><path d="M521.979661 441.795254h22.99661l-3.471186 19.612204 21.434576-15.53356a194.56 194.56 0 0 1 2.950508-32.368813q18.744407-96.325424 91.031865-99.88339 37.575593 0.433898 51.460339 26.814915l308.675254-224.065085-2.690169 45.819661L1024 0.433898V0h-8.677966L538.988475 345.296271zM523.888814 0H433.898305l8.157288 59.444068L523.888814 0zM471.821017 277.608136L853.825085 0H691.460339l-234.305085 170.261695 14.665763 107.346441zM965.684068 982.779661l-15.099661 11.021017 14.492203-0.520678 4.946441-83.829153zM915.438644 905.632542q-45.472542-1.301695-93.635254-2.082711l19.265085 93.027796-6.682034-32.108474zM304.856949 988.333559c25.079322 1.388475 51.373559 2.60339 78.622373 3.731526l14.839322-71.593221zM254.958644 915.178305l-8.330847 69.597288 8.330847-69.597288zM254.958644 915.178305v-3.557966l20.913898-15.186441-19.265084 1.214916-2.082712 17.355932z" fill="#D4D4D4" p-id="10970"></path><path d="M818.245424 886.107119l3.557966 17.355932q48.075932 0.781017 93.635254 2.082712l22.909831-16.661695c-38.44339-1.128136-78.622373-2.082712-120.103051-2.776949z" fill="#D4D4D4" p-id="10971"></path><path d="M987.812881 610.147797l-5.553898 93.895593 5.553898-93.895593zM349.288136 126.871864l-15.967458 133.29356 123.834576-89.903729-15.099661-110.817627-92.767457 67.427796zM817.811525 858.511186H706.993898l-3.557966 15.44678H796.637288l21.174237-15.44678zM938.348475 888.970847l32.802711 1.128136 1.562034-26.033898zM407.864407 873.957966h54.497627l82.614237-60.051525L531.004746 711.59322l-254.698305 184.840678c39.658305-2.429831 82.614237-4.512542 128.173559-6.161356zM391.115932 441.795254L480.759322 343.647458l-8.938305-66.039322-153.947119 111.772203-15.27322 127.392542 86.258983-62.568135 2.256271-12.409492zM246.627797 984.775593L242.983051 1015.322034h24.385085l37.488813-27.248814q-30.372881-1.388475-58.229152-3.297627zM950.584407 993.800678c-34.711864 1.214915-71.76678 2.082712-109.515932 2.776949l5.380339 26.033898 63.435932 0.781017zM516.338983 604.07322l-13.103729-95.978305h-26.120678L287.153898 645.987797l-9.545762 80.184406-6.768814 56.233221L516.338983 604.07322zM485.879322 381.136271l-7.115932 7.896949 7.463051-5.467118-0.347119-2.429831z" fill="#D9D9D9" p-id="10972"></path><path d="M492.301017 379.140339l1.128136-6.334915-7.549831 8.330847 0.347119 2.429831 6.074576-4.425763zM811.823729 389.293559l13.884746-9.979661 1.128135-6.508474-15.012881 16.488135zM608.151864 414.372881Q595.482034 485.966102 627.330169 485.966102q30.025763 0 42.695594-71.593221a176.943729 176.943729 0 0 0 3.905084-49.030508l-65.518644 47.468474zM995.102373 486.833898l1.995932-33.14983 5.03322-84.61017-127.305762 92.507119-1.388475 7.63661h-9.198644l-15.793898 11.541695-4.772882 27.335593h-32.976271L531.004746 711.419661l13.971525 102.48678 450.126102-327.072543z" fill="#D9D9D9" p-id="10973"></path><path d="M713.502373 413.505085a157.071186 157.071186 0 0 1-23.430509 64.303729l32.195255-23.343729 2.256271-12.669831 113.854915-124.702373h38.877288l-4.94644 28.29017 137.111864-99.623051 4.946441-83.568814 2.690169-45.819661-308.762034 224.065085q13.277288 24.905763 5.20678 73.068475zM703.435932 873.957966l3.557966-15.44678h110.817627l162.277967-117.846779 2.169491-36.621017 5.553898-93.895593-363.086101 263.810169h78.709152zM621.949831 512q-58.83661-1.475254-59.01017-65.778983l-21.434576 15.186441-1.388475 7.810169h-9.372203l-15.620339 11.368136-4.859661 27.595932H503.322034l13.016949 95.891525 131.471186-95.457627a92.854237 92.854237 0 0 1-25.860338 3.384407zM480.759322 343.647458l24.298305-26.467797h38.877288l-4.94644 28.11661L1014.888136 0H853.825085L471.821017 277.608136l8.938305 66.039322zM457.155254 170.261695L691.460339 0H523.888814l-81.833221 59.444068 15.099661 110.817627zM398.231864 920.471864l2.69017-12.843389c-52.588475 1.995932-101.532203 4.512542-145.87661 7.46305l-8.677966 69.423729q27.943051 1.909153 58.229152 3.557966zM965.684068 982.779661l4.338983-73.328814v-2.082711l-54.757966-1.735594-80.965424 58.836611 6.682034 32.108474c37.749153-0.694237 74.370169-1.648814 109.515932-2.776949z" fill="#D9D9D9" p-id="10974"></path><path d="M276.306441 896.433898l-20.913899 14.752543v3.557966c44.431186-2.950508 93.374915-5.467119 145.876611-7.463051l3.644745-17.355932c-45.99322 1.995932-88.949153 3.905085-128.607457 6.508474zM938.348475 888.970847l-22.909831 16.661695 54.757966 1.735594 1.041356-17.355933z" fill="#D9D9D9" p-id="10975"></path><path d="M488.569492 400.574915l-7.289492 41.220339h-50.418983l47.902373-52.762034-89.903729 65.171526-2.60339 15.012881H476.420339l-6.855593 38.877288h7.54983l23.777627-17.182373-12.322711-90.337627zM488.569492 400.574915l12.322711 90.337627 14.231865-10.326779 1.995932-11.368136h13.624407l10.760678-7.810169 3.471186-19.612204h-22.99661l17.008814-96.498983-46.687458 33.844068-3.731525 21.434576z" fill="#A4A4AB" p-id="10976"></path><path d="M485.879322 381.136271l-5.12-37.488813-89.64339 98.147796-2.256271 12.409492 89.903729-65.171526 7.115932-7.896949zM477.114576 508.094915h26.120678l-2.343051-17.182373-23.777627 17.182373zM540.11661 469.217627l1.388475-7.810169-10.760678 7.810169h9.372203zM493.429153 372.805424l-1.128136 6.334915 46.687458-33.844068 4.94644-28.11661H505.057627l-24.298305 26.467797 5.12 37.488813 7.549831-8.330847zM515.124068 480.585763l-14.231865 10.326779 2.343051 17.182373h7.029153l4.859661-27.509152zM652.930169 341.044068c12.235932-0.694237 19.178305 7.463051 21.000678 24.385085l34.711865-24.992543q-13.971525-26.033898-51.460339-26.814915-72.287458 3.557966-91.031865 99.88339a194.56 194.56 0 0 0-2.950508 32.368813l45.472542-32.976271q12.930169-72.721356 44.257627-71.853559zM690.071864 477.808814l-42.348474 30.72a74.890847 74.890847 0 0 0 42.348474-30.72z" fill="#A4A4AB" p-id="10977"></path><path d="M621.949831 512a92.854237 92.854237 0 0 0 26.033898-3.124068l42.348474-30.72a157.071186 157.071186 0 0 0 23.430509-64.303729q8.070508-48.249492-5.20678-73.155254l-34.711864 24.992543a176.943729 176.943729 0 0 1-3.905085 49.030508Q657.442712 485.966102 627.330169 485.966102q-31.848136 0-19.178305-71.593221v-1.562034l-45.472542 32.976272q0.433898 64.390508 59.270509 66.212881zM855.300339 441.795254l17.008814-96.412203-46.600678 33.930847-11.021017 62.481356h-50.418983l47.555254-52.501695-89.64339 65.171526-2.60339 14.752542h90.250848l-6.855594 38.877288h7.72339l37.749153-27.335593 1.995932-11.541695h13.797966l10.587119-7.63661 3.471186-19.785763h-22.99661z" fill="#A4A4AB" p-id="10978"></path><path d="M873.437288 469.217627l1.388475-7.63661-10.587119 7.63661h9.198644zM843.671864 508.094915l4.772882-27.335593-37.749153 27.335593h32.976271zM826.83661 372.805424l-1.128135 6.508474 46.600678-33.930847 4.94644-28.20339h-38.877288L724.43661 441.795254l-2.256271 12.669831 89.64339-65.171526 15.012881-16.488135z" fill="#A4A4AB" p-id="10979"></path></svg>