<?xml version="1.0" standalone="no"?><!DOCTYPE svg PUBLIC "-//W3C//DTD SVG 1.1//EN" "http://www.w3.org/Graphics/SVG/1.1/DTD/svg11.dtd"><svg t="1594021235381" class="icon" viewBox="0 0 1072 1024" version="1.1" xmlns="http://www.w3.org/2000/svg" p-id="3576" xmlns:xlink="http://www.w3.org/1999/xlink" width="209.375" height="200"><defs><style type="text/css">@font-face { font-family: element-icons; src: url("chrome-extension://moombeodfomdpjnpocobemoiaemednkg/fonts/element-icons.woff") format("woff"), url("chrome-extension://moombeodfomdpjnpocobemoiaemednkg/fonts/element-icons.ttf ") format("truetype"); }
</style></defs><path d="M593.33325 256.207727c22.722177 3.195806 25.566444-8.788465 62.797578-0.191748 0 0-18.439798-47.937083-55.766806-50.429811-33.428126-2.205106-44.581487 45.220648-7.030772 50.621559zM638.585856 208.526309c33.811622 16.394482 35.153861 41.801136 35.153861 41.801136s37.231134-102.713189-23.776793-107.570813c-31.350852-2.492728-45.955683 48.991698-11.377068 65.769677zM702.182386 179.380563s53.657574-46.243306 16.937769-58.930654c-17.800637-6.167905-30.424068 12.399725-22.370639 28.76225a49.566943 49.566943 0 0 1 5.43287 30.168404z" fill="#17B5F8" p-id="3577"></path><path d="M789.36396 207.247987c10.67399-28.187005-8.788465-40.714562-24.256164-46.562886-34.259035-13.038886-52.443168 12.431683-59.282192 68.006741-2.332938 19.430497-17.608888 33.715748-17.608888 33.715748S772.394233 252.468635 789.36396 207.247987z" fill="#17B5F8" p-id="3578"></path><path d="M823.896834 485.927166m-7.582487 18.305743a19.813994 19.813994 0 1 0 15.164975-36.611487 19.813994 19.813994 0 1 0-15.164975 36.611487Z" fill="#17B5F8" p-id="3579"></path><path d="M619.986268 734.236315l3.643218-1.374197c3.036015-1.15049 6.040072-2.364896 9.04413-3.579302 56.086387-22.913925 32.757006-101.402909-18.311966-101.402908a56.917296 56.917296 0 0 0-19.398539 3.579302c-3.195806 1.086574-6.07203 2.237064-9.108046 3.419512A469.783409 469.783409 0 0 0 402.671494 761.720242a466.587604 466.587604 0 0 0 51.42051 2.812309 470.039074 470.039074 0 0 0 103.608015-11.600774 72.544785 72.544785 0 0 0-9.36371-13.390425l-4.761751-5.305037H619.986268z" fill="#17B5F8" p-id="3580"></path><path d="M181.106298 427.311154a7.542101 7.542101 0 0 1 2.524686 8.564759 309.993134 309.993134 0 0 0-12.783222 47.170089c-0.735035 3.930841-1.374196 7.89364-1.949441 11.888397l1.406154 13.006928c14.317209 133.360964 116.934523 244.670869 249.528494 270.652768a311.175582 311.175582 0 0 0 59.537857 5.784408h86.989826a72.448911 72.448911 0 0 0-7.254479-28.506585 472.276138 472.276138 0 0 1-156.91405 9.012172l-6.135947-0.67112 4.090631-4.601959a470.071032 470.071032 0 0 1 184.397978-127.832221c3.036015-1.182448 6.103989-2.30098 9.171962-3.419512a60.400724 60.400724 0 0 1 20.485113-3.77105c30.040572 0 48.48037 24.128332 52.890581 46.562886 5.209163 26.62106-7.861682 50.557643-33.364209 61.007927l-5.017415 1.9814h41.833094a287.622495 287.622495 0 0 0 281.230885-229.490794l1.374196-6.870981a289.444105 289.444105 0 0 0-279.952562-224.313589 293.534736 293.534736 0 0 0-32.405468 1.502029 288.133824 288.133824 0 0 0-134.223831 49.375195 289.827601 289.827601 0 0 0-125.850821 231.440234v2.748393a82.931153 82.931153 0 0 1-165.766432-0.830909v-4.186505-1.470071a236.93702 236.93702 0 0 1 22.786094-98.047313 7.606017 7.606017 0 0 1 7.126646-4.346295 109.903751 109.903751 0 0 0 112.300605-102.265777 109.999625 109.999625 0 0 0-106.771862-5.08133 5.017415 5.017415 0 0 1-6.391611-1.949442c-1.15049-1.949441-2.364896-3.866925-3.61126-5.720492A109.360464 109.360464 0 0 0 180.467137 290.818301a111.501654 111.501654 0 0 0-22.913926-4.250421c-1.949441 0-3.898883-0.287622-5.816366-0.351539a109.871793 109.871793 0 0 0 29.369453 141.222645zM814.259285 447.412771a38.637289 38.637289 0 1 1-37.327009 37.358966A38.605331 38.605331 0 0 1 814.259285 447.412771zM722.252044 526.540915l4.346296-21.252107a11.696648 11.696648 0 0 1 5.91224-7.925597l4.570002-2.46077a2.396854 2.396854 0 0 1 3.195805 0.990699l1.502029 2.780351a2.428812 2.428812 0 0 1-0.9907 3.195806 14.029586 14.029586 0 0 0-7.158604 9.906997l-1.789651 10.002871a3.195806 3.195806 0 0 0 1.821609 3.61126l12.080145 5.75245a11.568816 11.568816 0 0 0 10.546158-0.223706 2.396854 2.396854 0 0 1 3.195805 0.990699l1.438113 2.620561a2.428812 2.428812 0 0 1-0.9907 3.195805l-4.729792 2.556645a11.696648 11.696648 0 0 1-10.737907 0l-20.644903-10.35441a3.195806 3.195806 0 0 1-1.565945-3.387554z m-26.716934 12.783222l4.346296-21.252107a11.66469 11.66469 0 0 1 5.880282-7.925597l4.570002-2.46077a2.428812 2.428812 0 0 1 3.195805 0.990699l1.502029 2.780351a2.428812 2.428812 0 0 1-0.9907 3.195806 14.157418 14.157418 0 0 0-7.190562 9.906997l-1.789651 10.002871a3.419512 3.419512 0 0 0 1.853567 3.61126l12.048187 5.75245a11.568816 11.568816 0 0 0 10.546158-0.223706 2.396854 2.396854 0 0 1 3.195805 0.990699l1.406155 2.620561a2.396854 2.396854 0 0 1-0.9907 3.195805l-4.697834 2.556645a11.696648 11.696648 0 0 1-10.737907 0.15979l-20.676861-10.35441a3.195806 3.195806 0 0 1-1.342239-3.61126z" fill="#17B5F8" p-id="3581"></path><path d="M670.639785 737.43212h-119.93858a75.037513 75.037513 0 0 1 18.951126 46.946383h100.987454A286.503964 286.503964 0 0 0 955.545846 530.152175l1.438113-12.591473c-0.639161-4.090631-1.374196-8.149304-2.173148-12.176019a290.243056 290.243056 0 0 1-284.171026 232.047437z" fill="#17B5F8" p-id="3582"></path><path d="M958.741652 530.503714a290.115224 290.115224 0 0 1-288.229699 257.070595H569.812122a75.42101 75.42101 0 0 1-39.308408 66.185132h140.040197a290.115224 290.115224 0 0 0 290.115224-290.115224A298.23257 298.23257 0 0 0 958.741652 530.503714z" fill="#17B5F8" p-id="3583"></path><path d="M566.616316 787.574309H479.370826a312.294114 312.294114 0 0 1-60.240934-5.848324c-133.201173-26.109731-237.448349-136.908308-252.085138-273.433119a301.620124 301.620124 0 0 0-1.789651 31.478684c-0.862867 165.063354 129.110542 301.396417 291.393546 313.188939q11.281193 0.798951 22.722177 0.83091h44.741277l5.113289-2.812309a72.289121 72.289121 0 0 0 37.390924-63.404781z" fill="#17B5F8" p-id="3584"></path></svg>